<?xml version="1.0" standalone="no"?>
<!DOCTYPE svg PUBLIC "-//W3C//DTD SVG 20010904//EN"
 "http://www.w3.org/TR/2001/REC-SVG-20010904/DTD/svg10.dtd">
<svg version="1.0" xmlns="http://www.w3.org/2000/svg"
 width="208.000000pt" height="208.000000pt" viewBox="0 0 208.000000 208.000000"
 preserveAspectRatio="xMidYMid meet">
<metadata>
Created by potrace 1.11, written by Peter Selinger 2001-2013
</metadata>
<g transform="translate(0.000000,208.000000) scale(0.100000,-0.100000)"
fill="#000000" stroke="none">
<path d="M285 1460 c-2 -3 -30 -106 -63 -230 -34 -124 -66 -245 -73 -270 -7
-25 -13 -49 -15 -55 -4 -16 -63 -238 -70 -262 -4 -16 -2 -23 7 -24 53 -3 1730
-1 1733 2 3 3 158 575 171 632 2 10 13 50 24 90 10 40 21 83 23 97 l3 25 -868
0 c-478 0 -870 -2 -872 -5z"/>
</g>
</svg>
